<svg xmlns="http://www.w3.org/2000/svg" viewBox="0 0 24 24" fill="#09090b">
    <ellipse fill="white" cx="12" cy="12" rx="7" ry="7" />
    <path
        d="M 12 23.952 C 5.399 23.952 0.048 18.601 0.048 12 C 0.048 5.399 5.399 0.048 12 0.048 C 18.601 0.048 23.952 5.399 23.952 12 C 23.952 18.601 18.601 23.952 12 23.952 Z M 17.378 6.622 L 9.61 9.61 L 6.622 17.378 L 14.39 14.39 L 17.378 6.622 Z M 12 13.195 C 11.34 13.195 10.805 12.66 10.805 12 C 10.805 11.34 11.34 10.805 12 10.805 C 12.66 10.805 13.195 11.34 13.195 12 C 13.195 12.66 12.66 13.195 12 13.195 Z" />
</svg>
